<svg width="19" height="19" viewBox="0 0 19 19" fill="none" xmlns="http://www.w3.org/2000/svg">
<path d="M7.19583 16.7063C6.79861 16.0951 6.47014 15.4649 6.21042 14.8156C5.95069 14.1663 5.73681 13.4292 5.56875 12.6042H2.10833C2.64306 13.6736 3.33819 14.5521 4.19375 15.2396C5.04931 15.9271 6.05 16.416 7.19583 16.7063ZM1.65 11.2292H5.31667C5.27083 10.8625 5.24028 10.5302 5.225 10.2323C5.20972 9.93438 5.20208 9.59445 5.20208 9.2125C5.20208 8.89167 5.2059 8.56701 5.21354 8.23854C5.22118 7.91007 5.24792 7.53958 5.29375 7.12708H1.65C1.54306 7.49375 1.47049 7.83368 1.43229 8.14688C1.3941 8.46007 1.375 8.81528 1.375 9.2125C1.375 9.60972 1.3941 9.95347 1.43229 10.2438C1.47049 10.534 1.54306 10.8625 1.65 11.2292ZM2.10833 5.75208H5.54583C5.72917 4.91181 5.95833 4.15556 6.23333 3.48333C6.50833 2.81111 6.83681 2.18472 7.21875 1.60417C5.92014 2.04722 4.88889 2.57813 4.125 3.19688C3.36111 3.81563 2.68889 4.66736 2.10833 5.75208ZM6.96667 5.75208H11.3896C11.1604 4.77431 10.8663 3.93021 10.5073 3.21979C10.1483 2.50937 9.70139 1.87917 9.16667 1.32917C8.63194 1.89444 8.18507 2.54375 7.82604 3.27708C7.46701 4.01042 7.18056 4.83542 6.96667 5.75208ZM12.8104 5.75208H16.225C15.6903 4.75903 14.9837 3.91111 14.1052 3.20833C13.2267 2.50556 12.2375 1.97847 11.1375 1.62708C11.5194 2.20764 11.8441 2.83403 12.1115 3.50625C12.3788 4.17847 12.6118 4.92708 12.8104 5.75208ZM9.16667 18.3333C7.88333 18.3333 6.68403 18.1003 5.56875 17.6344C4.45347 17.1684 3.48333 16.5229 2.65833 15.6979C1.83333 14.8729 1.18403 13.9066 0.710417 12.799C0.236806 11.6913 0 10.4958 0 9.2125C0 7.92917 0.236806 6.72604 0.710417 5.60313C1.18403 4.48021 1.83333 3.50625 2.65833 2.68125C3.48333 1.85625 4.45347 1.20312 5.56875 0.721875C6.68403 0.240625 7.88333 0 9.16667 0C10.45 0 11.6493 0.240625 12.7646 0.721875C13.8799 1.20312 14.85 1.85625 15.675 2.68125C16.5 3.50625 17.1493 4.48021 17.6229 5.60313C18.0965 6.72604 18.3333 7.92917 18.3333 9.2125C18.3333 9.47222 18.3257 9.73194 18.3104 9.99167C18.2951 10.2514 18.2646 10.5111 18.2188 10.7708H16.7979C16.859 10.5111 16.901 10.2628 16.924 10.026C16.9469 9.78924 16.9583 9.51806 16.9583 9.2125C16.9583 8.81528 16.9392 8.46007 16.901 8.14688C16.8628 7.83368 16.7903 7.49375 16.6833 7.12708H13.0167C13.0625 7.58542 13.0969 7.96354 13.1198 8.26146C13.1427 8.55937 13.1542 8.87639 13.1542 9.2125C13.1542 9.42639 13.1503 9.6441 13.1427 9.86563C13.1351 10.0872 13.116 10.3889 13.0854 10.7708H11.6875C11.7181 10.45 11.741 10.175 11.7563 9.94583C11.7715 9.71667 11.7792 9.47222 11.7792 9.2125C11.7792 8.89167 11.7715 8.58229 11.7563 8.28438C11.741 7.98646 11.7028 7.60069 11.6417 7.12708H6.71458C6.65347 7.60069 6.61528 7.98646 6.6 8.28438C6.58472 8.58229 6.57708 8.89167 6.57708 9.2125C6.57708 9.51806 6.58472 9.81215 6.6 10.0948C6.61528 10.3774 6.65347 10.7556 6.71458 11.2292H10.7708V12.6042H6.96667C7.27222 13.75 7.59306 14.659 7.92917 15.3313C8.26528 16.0035 8.67778 16.5458 9.16667 16.9583C9.4875 16.6222 9.7816 16.2479 10.049 15.8354C10.3163 15.4229 10.5569 14.9951 10.7708 14.5521V18.1958C10.5111 18.2417 10.2476 18.276 9.98021 18.299C9.71285 18.3219 9.44167 18.3333 9.16667 18.3333ZM16.4542 17.4396L13.5208 14.5063V16.8667H12.1458V12.1458H16.8667V13.5208H14.4833L17.4167 16.4542L16.4542 17.4396Z" fill="white"/>
</svg>
