<svg width="22" height="22" viewBox="0 0 22 22" fill="none" xmlns="http://www.w3.org/2000/svg">
<path d="M11.0917 16.3396C11.3362 16.3396 11.5424 16.2556 11.7105 16.0875C11.8785 15.9194 11.9625 15.7132 11.9625 15.4688C11.9625 15.2243 11.8785 15.0181 11.7105 14.85C11.5424 14.6819 11.3362 14.5979 11.0917 14.5979C10.8473 14.5979 10.641 14.6819 10.473 14.85C10.3049 15.0181 10.2209 15.2243 10.2209 15.4688C10.2209 15.7132 10.3049 15.9194 10.473 16.0875C10.641 16.2556 10.8473 16.3396 11.0917 16.3396ZM10.2896 12.9938H11.6417C11.6417 12.5965 11.6914 12.2337 11.7907 11.9052C11.89 11.5767 12.1993 11.1986 12.7188 10.7708C13.1924 10.3736 13.5285 9.98403 13.7271 9.60208C13.9257 9.22014 14.025 8.8 14.025 8.34167C14.025 7.53195 13.7615 6.88264 13.2344 6.39375C12.7073 5.90486 12.0084 5.66042 11.1375 5.66042C10.3889 5.66042 9.72817 5.84757 9.15525 6.22188C8.58233 6.59618 8.16601 7.11181 7.90629 7.76875L9.12087 8.22708C9.28893 7.79931 9.54101 7.46701 9.87712 7.23021C10.2132 6.9934 10.6105 6.875 11.0688 6.875C11.5882 6.875 12.0084 7.01632 12.3292 7.29896C12.65 7.5816 12.8105 7.94444 12.8105 8.3875C12.8105 8.72361 12.7112 9.04063 12.5125 9.33854C12.3139 9.63646 12.0237 9.94583 11.6417 10.2667C11.1834 10.6639 10.8434 11.0573 10.6219 11.4469C10.4004 11.8365 10.2896 12.3521 10.2896 12.9938ZM11 20.1667C9.74726 20.1667 8.56324 19.926 7.44796 19.4448C6.33268 18.9635 5.35872 18.3066 4.52608 17.474C3.69344 16.6413 3.0365 15.6674 2.55525 14.5521C2.074 13.4368 1.83337 12.2528 1.83337 11C1.83337 9.73195 2.074 8.54028 2.55525 7.425C3.0365 6.30972 3.69344 5.33958 4.52608 4.51458C5.35872 3.68958 6.33268 3.03646 7.44796 2.55521C8.56324 2.07396 9.74726 1.83333 11 1.83333C12.2681 1.83333 13.4598 2.07396 14.575 2.55521C15.6903 3.03646 16.6605 3.68958 17.4855 4.51458C18.3105 5.33958 18.9636 6.30972 19.4448 7.425C19.9261 8.54028 20.1667 9.73195 20.1667 11C20.1667 12.2528 19.9261 13.4368 19.4448 14.5521C18.9636 15.6674 18.3105 16.6413 17.4855 17.474C16.6605 18.3066 15.6903 18.9635 14.575 19.4448C13.4598 19.926 12.2681 20.1667 11 20.1667ZM11 18.7917C13.1695 18.7917 15.0105 18.0316 16.523 16.5115C18.0355 14.9913 18.7917 13.1542 18.7917 11C18.7917 8.83056 18.0355 6.98958 16.523 5.47708C15.0105 3.96458 13.1695 3.20833 11 3.20833C8.84587 3.20833 7.00872 3.96458 5.48858 5.47708C3.96844 6.98958 3.20837 8.83056 3.20837 11C3.20837 13.1542 3.96844 14.9913 5.48858 16.5115C7.00872 18.0316 8.84587 18.7917 11 18.7917Z" fill="white"/>
</svg>
