<svg width="89" height="79" viewBox="0 0 89 79" fill="none" xmlns="http://www.w3.org/2000/svg">
<path d="M48.7123 68.2409L49.201 68.3464L48.7123 68.2409ZM30.0804 46.6705L30.2188 47.151L30.0804 46.6705ZM27.0622 33.7993L27.3587 34.202L27.409 34.1649L27.4487 34.1165L27.0622 33.7993ZM0.213412 2.66973C-0.0128632 2.82801 -0.0679797 3.13976 0.0903042 3.36603L2.66971 7.05341C2.82799 7.27968 3.13974 7.3348 3.36601 7.17651C3.59229 7.01823 3.64741 6.70648 3.48912 6.48021L1.19632 3.20254L4.47398 0.909743C4.70026 0.751458 4.75537 0.439709 4.59709 0.213435C4.43881 -0.0128388 4.12706 -0.0679549 3.90078 0.0903299L0.213412 2.66973ZM88.4214 75.871L88.319 75.3816C81.1208 76.8878 70.525 78.309 62.1088 77.698C57.8904 77.3918 54.2932 76.5792 51.9411 75.0709C50.7741 74.3226 49.9316 73.4147 49.4576 72.3271C48.9844 71.2416 48.8588 69.9327 49.201 68.3464L48.7123 68.2409L48.2235 68.1355C47.8455 69.8878 47.9694 71.4156 48.5409 72.7267C49.1114 74.0355 50.1085 75.0837 51.4013 75.9127C53.9689 77.5591 57.7721 78.3858 62.0364 78.6954C70.5859 79.3161 81.2852 77.8751 88.5238 76.3604L88.4214 75.871ZM48.7123 68.2409L49.201 68.3464C50.0961 64.1975 51.474 60.1968 52.5354 56.6059C53.0633 54.8199 53.5123 53.1352 53.7718 51.6062C54.0306 50.081 54.1072 48.6764 53.8655 47.4609C53.6208 46.2306 53.048 45.1894 52.0214 44.4295C51.0076 43.6791 49.5984 43.2383 47.7413 43.1026C44.0396 42.8323 38.3669 43.7633 29.9421 46.1901L30.0804 46.6705L30.2188 47.151C38.6316 44.7278 44.157 43.8435 47.6685 44.1C49.418 44.2277 50.6192 44.6358 51.4265 45.2333C52.221 45.8213 52.68 46.6269 52.8847 47.6559C53.0923 48.6996 53.0358 49.9666 52.7859 51.4389C52.5367 52.9074 52.1015 54.5459 51.5764 56.3224C50.5319 59.8565 49.1291 63.9379 48.2235 68.1355L48.7123 68.2409ZM30.0804 46.6705L29.9421 46.1901C23.2052 48.1306 19.0963 48.7375 16.8605 48.4941C15.7373 48.3719 15.2222 48.0498 15.0134 47.7229C14.8114 47.4065 14.7884 46.9117 15.099 46.1565C15.7214 44.6433 17.4745 42.607 19.7769 40.4398C22.0588 38.292 24.8147 36.075 27.3587 34.202L27.0622 33.7993L26.7658 33.3967C24.2003 35.2855 21.4111 37.5284 19.0915 39.7117C16.7924 41.8757 14.8874 44.042 14.1742 45.7761C13.817 46.6445 13.7068 47.5346 14.1706 48.261C14.6276 48.9768 15.5313 49.3553 16.7523 49.4882C19.2047 49.7552 23.4856 49.0905 30.2188 47.151L30.0804 46.6705ZM27.0622 33.7993L27.4487 34.1165C30.6224 30.2499 33.1431 23.9577 30.1265 17.7775C27.1206 11.6193 18.7136 5.79185 0.587062 2.58707L0.500015 3.07944L0.412965 3.5718C18.4583 6.76224 26.4412 12.5071 29.2278 18.2162C32.0038 23.9033 29.7196 29.7735 26.6757 33.4821L27.0622 33.7993Z" fill="#F9C202"/>
</svg>
