<svg width="30" height="22" viewBox="0 0 30 22" fill="none" xmlns="http://www.w3.org/2000/svg">
<path d="M1.78125 21.25C1.28125 21.25 0.859375 21.0677 0.515625 20.7031C0.171875 20.3385 0 19.8958 0 19.375H4.40625C3.90625 19.375 3.46875 19.1875 3.09375 18.8125C2.71875 18.4375 2.53125 18 2.53125 17.5V1.875C2.53125 1.375 2.71875 0.9375 3.09375 0.5625C3.46875 0.1875 3.90625 0 4.40625 0H25.5938C26.0938 0 26.5312 0.1875 26.9062 0.5625C27.2812 0.9375 27.4688 1.375 27.4688 1.875V17.5C27.4688 18 27.2812 18.4375 26.9062 18.8125C26.5312 19.1875 26.0938 19.375 25.5938 19.375H30C30 19.8958 29.8177 20.3385 29.4531 20.7031C29.0885 21.0677 28.6458 21.25 28.125 21.25H1.78125ZM15 20.5625C15.2917 20.5625 15.5417 20.4583 15.75 20.25C15.9583 20.0417 16.0625 19.7917 16.0625 19.5C16.0625 19.2083 15.9583 18.9583 15.75 18.75C15.5417 18.5417 15.2917 18.4375 15 18.4375C14.7083 18.4375 14.4583 18.5417 14.25 18.75C14.0417 18.9583 13.9375 19.2083 13.9375 19.5C13.9375 19.7917 14.0417 20.0417 14.25 20.25C14.4583 20.4583 14.7083 20.5625 15 20.5625ZM4.40625 17.5H25.5938V1.875H4.40625V17.5Z" fill="#FF5959"/>
</svg>
