<svg width="30" height="30" viewBox="0 0 30 30" fill="none" xmlns="http://www.w3.org/2000/svg">
<path d="M1.78125 25C1.28125 25 0.859375 24.8177 0.515625 24.4531C0.171875 24.0885 0 23.6458 0 23.125H4.40625C3.90625 23.125 3.46875 22.9375 3.09375 22.5625C2.71875 22.1875 2.53125 21.75 2.53125 21.25V5.625C2.53125 5.125 2.71875 4.6875 3.09375 4.3125C3.46875 3.9375 3.90625 3.75 4.40625 3.75H25.5938C26.0938 3.75 26.5312 3.9375 26.9062 4.3125C27.2812 4.6875 27.4688 5.125 27.4688 5.625V21.25C27.4688 21.75 27.2812 22.1875 26.9062 22.5625C26.5312 22.9375 26.0938 23.125 25.5938 23.125H30C30 23.6458 29.8177 24.0885 29.4531 24.4531C29.0885 24.8177 28.6458 25 28.125 25H1.78125ZM15 24.3125C15.2917 24.3125 15.5417 24.2083 15.75 24C15.9583 23.7917 16.0625 23.5417 16.0625 23.25C16.0625 22.9583 15.9583 22.7083 15.75 22.5C15.5417 22.2917 15.2917 22.1875 15 22.1875C14.7083 22.1875 14.4583 22.2917 14.25 22.5C14.0417 22.7083 13.9375 22.9583 13.9375 23.25C13.9375 23.5417 14.0417 23.7917 14.25 24C14.4583 24.2083 14.7083 24.3125 15 24.3125ZM4.40625 21.25H25.5938V5.625H4.40625V21.25Z" fill="#F9C202"/>
</svg>
