<svg width="22" height="22" viewBox="0 0 22 22" fill="none" xmlns="http://www.w3.org/2000/svg">
<path d="M18.2188 19.25C16.3549 19.25 14.5024 18.7917 12.6615 17.875C10.8205 16.9583 9.16667 15.7667 7.7 14.3C6.23333 12.8333 5.04167 11.1795 4.125 9.33854C3.20833 7.49757 2.75 5.64514 2.75 3.78125C2.75 3.49097 2.84931 3.24653 3.04792 3.04792C3.24653 2.84931 3.49097 2.75 3.78125 2.75H6.98958C7.20347 2.75 7.39063 2.82257 7.55104 2.96771C7.71146 3.11285 7.81458 3.30764 7.86042 3.55208L8.47917 6.43958C8.50972 6.65347 8.5059 6.84826 8.46771 7.02396C8.42951 7.19965 8.34931 7.34861 8.22708 7.47083L5.93542 9.78542C6.79097 11.2063 7.74965 12.4438 8.81146 13.4979C9.87326 14.5521 11.0764 15.4458 12.4208 16.1792L14.5979 13.9333C14.7507 13.7653 14.9264 13.6469 15.125 13.5781C15.3236 13.5094 15.5222 13.4979 15.7208 13.5437L18.4479 14.1396C18.6771 14.1854 18.8681 14.3 19.0208 14.4833C19.1736 14.6667 19.25 14.8806 19.25 15.125V18.2188C19.25 18.509 19.1507 18.7535 18.9521 18.9521C18.7535 19.1507 18.509 19.25 18.2188 19.25ZM5.24792 8.525L7.10417 6.64583L6.57708 4.125H4.125C4.125 4.72083 4.21667 5.37396 4.4 6.08437C4.58333 6.79479 4.86597 7.60833 5.24792 8.525ZM13.7042 16.8438C14.3306 17.134 15.0104 17.3708 15.7437 17.5542C16.4771 17.7375 17.1875 17.8444 17.875 17.875V15.4229L15.5146 14.9417L13.7042 16.8438Z" fill="white"/>
</svg>
