<svg width="32" height="32" viewBox="0 0 32 32" fill="none" xmlns="http://www.w3.org/2000/svg">
<path d="M21.88 23.72L23.68 21.92L17.32 15.52V7.48H14.92V16.48L21.88 23.72ZM16 32C13.8133 32 11.7467 31.58 9.8 30.74C7.85333 29.9 6.15333 28.7533 4.7 27.3C3.24667 25.8467 2.1 24.1467 1.26 22.2C0.42 20.2533 0 18.1867 0 16C0 13.8133 0.42 11.7467 1.26 9.8C2.1 7.85333 3.24667 6.15333 4.7 4.7C6.15333 3.24667 7.85333 2.1 9.8 1.26C11.7467 0.42 13.8133 0 16 0C18.1867 0 20.2533 0.42 22.2 1.26C24.1467 2.1 25.8467 3.24667 27.3 4.7C28.7533 6.15333 29.9 7.85333 30.74 9.8C31.58 11.7467 32 13.8133 32 16C32 18.1867 31.58 20.2533 30.74 22.2C29.9 24.1467 28.7533 25.8467 27.3 27.3C25.8467 28.7533 24.1467 29.9 22.2 30.74C20.2533 31.58 18.1867 32 16 32ZM16 29.6C19.7333 29.6 22.9333 28.2667 25.6 25.6C28.2667 22.9333 29.6 19.7333 29.6 16C29.6 12.2667 28.2667 9.06667 25.6 6.4C22.9333 3.73333 19.7333 2.4 16 2.4C12.2667 2.4 9.06667 3.73333 6.4 6.4C3.73333 9.06667 2.4 12.2667 2.4 16C2.4 19.7333 3.73333 22.9333 6.4 25.6C9.06667 28.2667 12.2667 29.6 16 29.6Z" fill="#F9C202"/>
</svg>
